<svg version="1.1" preserveAspectRatio="none" xmlns="http://www.w3.org/2000/svg" width="500" height="500" viewBox="0 0 500 500"><rect width="100%" height="100%" fill="#FFFFFF" fill-opacity="1"/><svg viewBox="43.7846 122.077 389.7741 150" width="333" height="128.1511521673708" x="83.5px" y="185.9244px" xmlns="http://www.w3.org/2000/svg" xmlns:xlink="http://www.w3.org/1999/xlink" preserveAspectRatio="none"><defs></defs><style>.companyName {fill:#1e1e1e;fill-opacity:1;}.icon2 {fill:#b8b8b8;fill-opacity:1;}.icon3 {fill:#848383;fill-opacity:1;}.icon3-str {stroke:#848383;stroke-opacity:1;}.shape {fill:#F9E6E6;fill-opacity:1;}.text {fill:#1e1e1e;fill-opacity:1;}</style><g opacity="1" transform="rotate(0 54.7633 122.077)">
<svg width="367.8168" height="150" x="54.7633" y="122.077" version="1.1" preserveAspectRatio="none" viewBox="29.761022567749023 180.00205993652344 507.4023742675781 206.92466735839844">
  <g transform="matrix(1 0 0 1 0 0)"><g><path d="M444.145 226.427c.014 1.279-1.57.963-2.18 1.175-2.787.967-5.29 2.578-8.05 3.496-5.274 1.753-10.175 4.388-15.461 6.136-3.924 1.298-7.625 3.305-11.595 4.561-1.326.419-2.384 1.351-3.938 1.443-1.354.08-2.116 1.361-1.885 2.899-.482-.083-.785.137-.889.593-.017.077.217.311.294.294.457-.103.678-.406.594-.887 4.895.078 9.655-1.769 14.595-1.001 1.952-1.704 4.742-.223 6.777-1.784.432-.332 1.255-.196 1.898-.205 1.667-.024 3.697.588 4.915-.151 1.733-1.051 2.912.213 4.251.294 2.538.154 4.571-1.422 7.105-1.265 2.321.144 4.919 1.008 7.111-.851.29-.246.972-.022 1.472-.036 2.4-.067 4.798.292 7.13-.918.999-.518 2.452-.193 3.469.734.793-1.288 2.114-.918 3.157-.762 2.349.351 4.205-1.509 6.608-1.121 2.112.341 4.329.156 6.488.023.705-.044 1.374-.656 1.943-.949 1.161-.06 1.512 1.614 2.733.996 3.401-1.724 7.05-.823 10.593-.959 1.061-.041 1.861-.348 2.638-1.38 1.621 1.732 3.626 1.226 5.534 1.367 1.51.111 2.401-1.502 4.109-1.11 1.311.3 2.912.558 4.143-.846.255-.29 1.456-.203 2.296.261 2.27 1.253 4.603 1.184 6.934-.358 1.093-.235 1.608 1.551 2.964 1.049 1.096-.406 1.966.523 2.961.79l.427-1.671c4.017 1.888 7.977 3.765 11.837 6.486v2.874l1.739 1.736c1.072 2.412-1.084 4.139-.778 6.128l-3.45 3.617c-3.389.158-6.119-1.433-9.055-2.75l-2.302 1.087c-.573.755.346 1.957-.635 2.65-.892-.363-.126-1.619-1.194-1.932l-.642 1.81-1.37-.699c-1.209 1.927 1.045 1.896 1.159 2.757 1.255.209 1.503-.568 2.022-.916.962 1.131 2.494 1.231 3.63 2.032 1.069-1.22 2.576.096 3.671-.737 1.061 1.473 2.877.063 4.055 1.045.795 1.587-2.111 2.367-.149 4.444-2.635-.102-4.244.787-5.361 2.433-3.605-1.203-6.997-2.248-10.384-.237-1.839-1.526-4.383-1.582-5.994-.795-1.562.763-2.897-.334-4.014.396-1.619 1.058-2.643-.239-3.944-.556-.944-.23-2.208-.415-2.951.022-2.626 1.542-5.428.632-8.127.95-1.877.221-3.973-.786-5.614.959-.156.166-.742.159-.962.001-2.582-1.858-5.121-.196-7.693-.023-2.822.19-5.793-.483-8.473.161-4.546 1.093-9.188.19-13.585 1.06-3.586.71-7.184.192-10.598.945-3.891.858-7.857.243-11.581 1.049-3.253.704-6.664-.024-9.56 1.013-3.15 1.128-6.244.05-9.129.906-3.379 1.002-6.821.391-10.09 1.047-2.723.546-5.676.386-8.085 1.963l-1.449-1.339c-1.897 2.367-4.9.346-7.124 1.736-.807.505-1.527.499-2.308.479a47.15 47.15 0 0 0-14.697 1.949c-1.38.408-2.99.158-4.482.043-3.426-.265-6.65.527-9.8 1.721-1.931.732-4.26-.421-5.966 1.295-3.793-.731-7.38.792-11.083 1.097-3.889.321-7.727 1.367-11.551 2.252-.527.122-1.009.618-1.718.679-1.721.148-3.404-.405-5.184.832-1.244.864-3.541-.428-4.995 1.133-4.335-1.008-7.941 2.44-12.176 1.984-1.081-.116-1.521.972-2.563 1.154-.786.137-1.544.929-2.613.875-5.491-.278-10.536 1.851-15.658 3.27-4.427 1.227-9.045 2.099-13.095 4.616-.949.59-2.578.087-2.865.087-5.754 2.341-10.708 3.679-16.07 4.169-1.557 1.863-4.14 1.607-6.341 2.288a2191.665 2191.665 0 0 1-18.669 5.694c-2.533.759-5.072 2.208-7.559 3.451-2.19 1.094-4.399 2.649-7.002 2.309-1.376-.18-2.222.705-3.043 1.164-7.988 4.468-16.977 6.563-25.083 10.712-2.727-.66-4.343 1.598-6.463 2.505-1.98.847-3.986 1.653-5.945 2.564-4.319 2.007-8.902 3.45-13.392 5.083-.576.21-1.232-.119-1.836.421-3.343 2.983-7.827 3.679-11.756 5.413-3.78 1.668-7.76 2.965-11.509 4.809-1.354.666-2.914.913-4.336 1.338l-.801-.799c-.217.104-.644.211-.646.326-.032 1.597-.988 2.307-2.412 2.484-2.705.337-4.809 2.077-7.253 3.023-2.298.889-4.608 1.681-6.85 2.801-4.117 2.057-8.539 3.514-12.864 5.141-.568.214-1.211.073-1.765.595-2.393 2.255-5.39 3.025-8.564 3.472-1.986.28-3.257 2.799-5.679 1.961-1.968 2.684-5.254 2.607-7.954 3.737-2.557 1.07-5.204 1.928-7.822 2.847-2.764.97-5.531 1.859-8.243 3.05-3.655 1.606-7.714 2.309-11.619 3.325-.756.197-1.466.209-2.256.619-2.866 1.49-2.923 1.38-6.481 1.325l-2.154-5.55c.789-.535 2.018-.645 2.757-1.855-3.066-.962-3.447-4.952-6.56-5.489-.959-1.969-.162-3.276 1.207-3.963 4.04-2.026 7.896-4.334 11.751-6.683 1.496-.911 3.468-1.143 5.081-2.191 3.637-2.364 7.849-3.651 11.501-6.07 1.466-.971 3.118-1.916 5.107-2.173 1.849-.239 3.181-1.963 4.81-2.831 2.979-1.588 6.378-2.425 9.269-4.135 5.621-3.326 11.968-4.991 17.653-8.121 1.914-1.054 3.95-1.791 6.056-1.874l.418-1.602c.289-.108.57-.252.868-.316.936-.199 1.874.208 2.862-.354 2.949-1.678 5.98-3.218 9.227-4.273 1.185-.385 2.162-.987 2.409-2.312l1.28 1.142c2.353-1.361 4.326-3.947 7.488-3.126.23-.167.43-.236.473-.358.151-.439.249-.897.366-1.348 4.735-1.018 9.398-2.216 13.31-5.296 4.912-.099 8.5-3.654 13.031-4.749 3.121-.35 6.353-.395 8.758-3.019 2.721-.072 4.315-3.101 6.641-3.104 2.658-.004 4.536-1.426 6.633-2.279 7.728-3.144 15.933-4.944 23.496-8.465 1.318-.613 2.584-.001 3.855-.61l.368-1.766c2.827.782 5.315-1.526 8.235-.998l2.129-2.009.819.817c3.09-1.943 6.808-2.519 9.954-4.505 1.094-.691 2.845-.344 4.33-.473l1.804-1.801h3.143l1.481-2.259c4.539 1.057 7.486-2.221 11.262-2.839l1.317 1.066 2.494-3.185c4.615.824 8.172-1.215 11.916-2.381 2.419-.754 4.739-1.945 7.339-1.382l2.171-2.042.776.774c1.036-.534 2.271-.724 3.236-1.873h4.113c.535-.91-.722-.942-.473-1.599 1.509-1.105 3.635.632 5.044-1.049 1.582.922 2.909.499 4.624-.088 1.38-.472 3.288-.439 4.45-1.29 1.497-1.096 3.521-.456 4.707-2.102l1.591 1.12c1.233-1.585 4.091-.4 4.672-3.04l1.237 1.081c1.54-1.399 3.597-1.68 5.461-2.4 4.32-1.668 8.701-3.161 13.115-4.564.433-.137.815-.461 1.193-.734 2.447-1.769 5.409-2.235 8.142-3.29s5.606-1.956 8.126-3.267c1.74-.904 3.881.245 5.368-1.815.824-1.141 3.051-1.254 4.629-1.874 1.72-.676 3.729-1.055 5.035-2.213 1.149-1.019 2.438-.853 3.546-1.184 3.135-.938 6.063-2.346 8.992-3.672 3.147-1.424 6.364-2.346 9.665-3.274 3.674-1.033 7.007-3.232 10.656-4.406 4.887-1.572 9.626-3.363 13.994-6.073 5.28-.222 9.446-3.909 14.597-4.637 3.086-.436 5.452-2.804 8.52-3.575 2.837-.712 5.84-1.302 7.974-3.745.397-.455 1.609-.103 2.273-.45.705-.369 1.205-1.128 1.817-1.739l.705.775c.87.364 1.034-1.05 1.952-.804.566.152 1.335.277 1.73-.349l.313-1.517h3.129c2.275-3.215 6.469-2.634 9.484-4.893 2.689-2.015 6.616-2.382 9.978-3.47.298-.46.293-.912.079-1.299l-.37-.413c-1.789 2.378-4.831-.224-6.823 1.712-.45.437-1.552.244-2.356.272-2.238.077-4.388.103-6.629.893-2.842 1.002-6.13.671-9.004 1.316-4.096.92-8.102.523-12.186.833l-2.055 1.925c-.274-.273-.634-.755-.727-.708-3.217 1.614-7.034.959-10.205 2.703-4.59-.625-8.88 1.001-13.13 2.153-4.574 1.24-9.517.047-13.901 2.676-1.769 1.061-4.515-.455-6.483 1.204-4.683-.178-8.974 2.067-13.677 2.111-2.398.022-4.82 1.115-7.167 1.911-3.155 1.069-6.513.915-9.723 1.838-1.773.51-3.626.976-5.352 1.619-.783.292-1.496.547-2.283.501-3.573-.212-6.841 1.008-10.187 1.978-2.845.825-5.786 1.317-8.663 2.043-3.766.95-7.516 1.971-11.26 3.006-.434.12-.79.525-1.469.997-4.473-.971-8.687 1.458-13.116 2.499-1.335.314-2.94-.201-4.105.882-1.667 1.551-4.312-.464-5.841 1.594-1.955-.182-3.592 1.013-5.575 1.167-2.868.222-5.739 1.372-8.483 2.348-1.407.501-2.952-.199-4.125.889-1.664 1.543-3.958.061-5.969 1.399-1.273.847-3.55 1.059-5.432 1.367-3.789.621-7.567 1.793-11.216 3.026-2.767.935-5.792 1.117-8.381 2.718-.664.41-2.076.479-2.388-.939-.932.367-.575 1.164-1.093 2.032-3.235-.865-5.868 2.13-9.131 1.977-.853-.826-.321-1.71-.512-2.528 1.124-.908 2.717-.318 3.942-1.395 1.189-1.046 2.163 1.179 3.518.93 2.07-3.605 5.779-3.562 9.206-4.146.59-.587 1.18-1.175 1.769-1.764.118.059.239.174.353.168 4.321-.214 6.028-.759 10.266-3.253h7.052l1.997-2.224c2.003-.044 3.552-.594 4.744-.931 1.651-.467 3.666-.284 4.902-1.242 1.466-1.137 3.107-.061 4.576-1.166 1.013-.763 2.638-2.794 4.243-.601 1.337-.993 3.11-1.251 3.921-2.954 3.068.502 5.941.014 8.577-1.59l-.221-1.055c-1.566-.349-2.935-.319-4.504.641-.758.463-1.62 1.495-3 1.181-2.278-.517-4.223.94-6.321 1.498-1.482.395-3.032 1.578-4.354 1.335-4.078-.749-7.133 3.111-11.139 2.122-2.093 2.402-4.972 1.696-7.612 2.151-.826.142-3.103.172-2.86 2.835h-6.083c-1.978.733-3.673 2.35-6.12 2.038-1.738-.222-3.176 1.693-5.081.959-6.357 2.446-12.94 4.185-19.447 6.159-4.296 1.304-8.48 2.962-12.907 3.871-2.413.495-4.514 1.878-7.08 2.292-2.812.454-5.772 1.311-8.18 3.063-1.554 1.13-3.206.175-4.801.734-1.638 1.949-4.255 1.582-6.423 2.373-7.398 2.7-15.053 4.601-22.491 7.237-4.049 1.435-8.114 3.019-12.272 4.184-4.187 1.173-8.372 2.32-12.111 4.549-1.265.755-2.805.126-3.997 1.399-.551.588-2.32.296-2.8-1.676.22-1.435 2.237-1.781 3.358-2.081 4.529-1.21 8.181-4.497 12.879-5.169 8.36-4.809 17.848-6.787 26.634-10.538 3.25-1.387 6.532-2.872 9.901-3.822 5.234-1.477 9.961-4.211 15.201-5.583 3.293-.862 6.344-2.415 9.552-3.524 1.485-.513 3.119.149 4.573-1.124 1.022-.894 2.62-1.689 4.399-1.39 1.719.289 2.122-2.646 4.165-1.954 2.848-1.733 6.296-1.62 9.257-2.999 2.377-1.107 4.788-2.547 7.296-2.794 2.914-.287 5.414-1.539 8.125-2.239 2.533-.654 4.945-1.764 7.467-2.469a1010.951 1010.951 0 0 0 15.186-4.35c1.826-.542 3.671-.754 5.285-2.028 4.054-.133 4.864-.716 9.775-2.689 2.525-1.015 5.354-2.033 8.017-2.238 3.717-.286 6.964-1.938 10.485-2.694 2.068-.444 4.646.576 6.348-1.471 3.795.542 6.923-1.926 10.58-2.314 3.341-.354 6.527-2.06 9.872-2.538 1.494-.214 2.778-.78 3.977-1.34.903-.422 1.71-.999 2.668-.772 2.687.637 5.13-.613 7.557-1.182 2.22-.521 4.659-.596 6.572-1.969l1.117 1.015c1.869-1.205 4.312-1.119 6.119-2.884 2.341-.075 4.839-.305 7.369-.825 2.466-.507 4.936-.857 7.269-1.854.142-.061.261-.321.365-.306 4.437.644 8.511-.951 12.679-2.002 2.724-.687 5.591-.712 8.227-1.875.698-.308 1.623-.101 2.444-.134 1.747-.07 3.397-.047 5.149-.866 1.451-.678 3.329-.338 5.076-.994 1.84-.69 3.806-1.714 6.047-1.186 1.227.289 2.491-.633 3.597-.794 4.077-.593 8.118-1.317 12.159-2.11 1.696-.333 3.42.046 5.134-.947 1.265-.733 2.959-.105 4.622-.906 1.838-.886 4.464.223 6.496-1.187 3.633.76 7.108-.646 10.559-1.184 4.936-.77 10.133-.516 14.81-2.763.271-.13.659-.094.977-.041 3.786.631 7.303-1.642 11.09-1.011 2.135.355 3.846-1.462 6.099-1.066 1.94.341 4.155.573 5.958-.022 5.84-1.926 11.776-.229 17.931-1.112l2.331 3.345c-.362 1.251.972 3.052 1.281 5.264-1.62 1.426-2.842 3.352-5.061 4.138.735.834 1.765 1.456 2.075 2.505-1.418 2.046-4.891 1.344-5.214 4.485-2.145 1.371-4.884 1.847-6.837 3.805-.637.638-1.53 1.197-2.397 1.399-4.331 1.01-7.667 4.027-11.664 5.654-8.415 3.426-16.465 7.706-25.106 10.613-1.879.632-3.473 2.096-5.344 2.773-2.477.891-4.812 2.393-7.53 2.444-.259-.914.375-1.805-.677-2.193-.669.691-.585 1.326.677 2.193zm-24.674 4.873c1.545-.38 2.712.396 3.946-1.268-1.427.394-2.432-.425-3.372 1.122-.48-.086-.783.135-.886.591-.018.077.217.311.294.294.457-.103.677-.405.018-.739zM158.893 335.826c.988-.06 2.205.795 2.95-.285.121-.771.107-1.379-1.018-1.534-.894-.076-1.211 1.03-1.677 2.506-1.579-.675-2.89-.788-4.525.154 1.67.466 2.983.634 4.27-.841zm-65.445 26.183l2.897.001c.413-.588 1.265-.861 1.297-1.73-1.724-.914-2.79.055-3.787 1.73-.985.38-2.533-.926-3.002.999-.329 0-.667-.053-.984.008-5.443 1.053-10.274 3.728-15.323 5.822-.373.155-.86.541-.703 1.162h-1.626c-.503.855-.522 1.404.058 1.94 1.495.233 2.155-.684 2.568-1.94 1.292.508 1.953-.926 3.047-.991 1.261-.076 2.385-.011 3.595-.936 2.473-1.89 5.508-2.641 8.59-3.077.514-.073.891-.368.777-.989 1.554.16 2.611-.422 2.596-1.999zm17.417-6.992c1.729-.027 3.532.314 5.003-.999h1.625c.503-.854.522-1.403-.025-1.91-.775-.123-1.569-.287-1.6.911-1.852.204-4.208-.848-5.003 1.998-.985.38-2.533-.926-2.626.714l-5.478 1.801c.944.598 1.194 1.602 2.197 1.491.995-.998 1.974-1.981 2.905-3.007.985-.381 2.533.925 3.002-.999zm17.011-6.993h-4.58c-.891 1.833-3.248 1.905-4.42 3.494.315.457.84.68 1.274.479 2.369-1.098 5.474-.374 7.278-2.943.164-.234.952-.031 1.45-.031 1.175-.027 1.295-1.009.858-1.536-.674-.81-1.594-.874-1.86.537zm179.106-122.867c0-.166.046-.352-.013-.494s-.309-.356-.328-.342c-.974.727-2.368.73-3.258 1.983h-4.18c-.287.697-1.187.778-.967 1.835 3.022.197 5.796-1.269 8.744-1.504.013-.001.002-.312.002-.479 1.609-.16 3.235.262 4.844-.317 3.358-1.21 6.47-3.409 10.335-2.679 1.568-1.968 3.974-.45 5.877-1.445 2.354-1.231 4.974-1.901 7.697-1.508.063-1.66 1.267-2.019 2.742-3.066-4.568.051-8.068 2.696-12.002 2.18-1.692.364-2.772 2.259-4.725 1.825-2.5-.555-4.763.715-7.006 1.224-2.249.51-5.071.554-6.794 2.766-.125.16-.636.021-.968.021zm108.074-21.253c1.917.841 2.68-1.396 4.416-.813 1.345.451 2.992-.095 4.452.138 1.735.277 2.976-.958 4.544-1.249 2.13-.394 4.371-.49 6.446-1.19 1.157-.39 2.179-1.373 3.334-1.517 1.16-.145 2.281-1.482 3.552-.325.977-1.723 2.129 1.374 3.116-.113.283-.51-.067-1.299.725-1.593.956 1.692 2.029.767 3.093.111 1.341 2.131 2.45-.345 3.734-.209 1.644.175 3.735.667 4.891-.098 1.935-1.28 3.798-.734 5.667-.805 1.938-.074 3.477-1.515 5.582-1.117 2.542.48 5.084-.119 7.565-.905 1.184-.375 1.013-.983.697-1.767-4.13-1.327-7.99.904-12.002.738-1.886 1.902-4.374.509-6.492 1.184-3.162 1.008-6.452 1.878-9.72 1.711-3.958-.203-7.618 1.812-11.567 1.121-.26-.046-.563.233-.859.302-2.427.566-4.888 1.665-7.28 1.535-2.856-.155-5.417.837-8.037 1.333-1.686.319-3.362.744-5.109.829-.26.013-.506.332-.747.503l-.001 2.196zm-13.118.374c-3.337-.398-6.138.127-8.803 1.334-.418.189-.702.589-1.266.579-4.497-.082-8.794 1.208-13.182 1.826-2.36.332-4.974.388-6.978 1.326-2.397 1.123-4.999.482-7.278 1.77-1.479.837-3.211 1.145-5.047 1.167-1.321.016-3.071.45-3.55 2.548 2.722 1.06 4.501-1.091 6.877-1.364.748.858 1.846 1.084 3.188.335 3.539-1.974 7.365-2.8 11.398-2.617 2.323.105 4.495-.139 6.108-1.883 1.612-.534 3.203.296 4.839-.688 1.302-.782 3.141-1.031 4.701-.925 1.54.105 2.868-1.119 4.339-.491 1.611.688 2.948-1.563 4.652-.24.002-.86.002-1.643.002-2.677zM131.07 346.897c3.977.841 6.824-2.607 10.527-2.947 1.855-.17 3.511-1.356 4.74-2.875 1.179-.332 2.592.498 3.573-.643l-.261-1.547c-.817.587-1.572.07-2.644.425-4.531 1.504-8.561 4.177-13.204 5.45-.916.251-2.435-.603-2.927.985l.196 1.152zm272.188-141.893c3.347.916 6.417-.841 9.691-1.116v-1.777c-3.44.388-6.979-.896-9.935 1.738l.244 1.155zm85.955 53.272c1.396-.63 3.916.742 4.934-2.219-1.449.268-2.672.495-3.893.725-.359-.305-.609-.811-1.161-.668-.958-.094-1.145 1.199-2.13 1.029a5.623 5.623 0 0 0-1.979.007c-.571.11-1.612-.616-1.652.734 1.525.684 3.265-.308 4.643.577l.302 1.481c1.208.006.671-.839.936-1.666zm-1.042-67.739c-1.808-.448-3.116-.355-4.749.504-1.398.735-3.49.152-5.206.152v3.021c3.115-1.999 6.889-1.519 9.955-3.677zm-141.929 24.538c-1.885 2.02-4.757.546-7.268 1.382.306 1.014-.639 2.159.744 2.721 1.38.114 1.729-1.277 2.854-1.977 1.302-.306 2.972.382 4.468-.425-.118-.55.181-1.087-.798-1.701zm7.672-.732h-5.813v1.649h5.813v-1.649zm45.093 32.61c.06-.985.172-1.668-.748-1.816-1.165-.185-1.675 1.2-3.001 1.106-1.047-.075-2.163.828-3.609 1.452 2.998 1.306 5.031-.953 7.358-.742zM62.13 373.864c-1.473.67-3.188 1.113-4.274 2.757 2.263 1.114 3.448-.702 4.849-.996.233-.935.015-1.323-.575-1.761zm109.408-42.373c-2.789-1.097-4.014.43-5.771 1.042 2.203 1.35 3.439-.424 5.771-1.042zm287.502-71.887c.897.849 1.698 1.725 2.872 2.781.085-1.535.573-2.497-.344-3.274-.749.182-1.592-.332-2.528.493zm-22.063-35.405c-1.694-.167-2.262.672-2.843 1.592 1.003.518 1.885.556 2.843-.017v-1.575zm72.923 32.198c-.886-.009-1.87-.637-2.875.28 1.158.598 2.044.644 2.875-.28zm-69.885-33.738c1.046.788 2.047.788 3.094 0-1.047-.788-2.047-.788-3.094 0zM150.879 338.534c.677.726 1.344.726 2.021 0-.677-.725-1.344-.725-2.021 0zM406.82 236.44c-.482.252-1.332-.988-1.641.376.604.483 1.158.517 1.641-.376zm25.015-9.989c-.482.252-1.332-.988-1.641.376.604.482 1.158.517 1.641-.376zm1.722.709c-.466.328-.466.661 0 .988.466-.328.466-.661 0-.988z" data-color="1" class="shape"></path><path d="M201.49 260.057c-.72-.448-.862-1.099-2.12-.703-2.679 2.466-6.962 2.346-10.697 3.769-3.028 1.154-6.258 1.636-9.269 2.892-.928.387-2.247.403-3.603-.359 4.032-3.315 9.521-2.669 14.005-5.504h4.661l1.33-1.69c1.842-.858 4.011.659 4.788-1.317 1.337-.088 1.517 1.307 1.585 1.284 2.214-.682 1.581-2.436 3.588-3.116 3.693-.348 7.793-2.272 12.044-3.653 2.898-.942 5.675-1.983 8.751-1.394.604.329.288.894.437 1.466-3.415 1.016-6.756 2.507-10.223 2.905-3.647.419-6.501 3.687-10.57 2.222-.6 2.779-3.455 1.581-4.707 3.198z" data-color="1" class="shape"></path><path d="M171.401 266.112c.471.47.941.942 1.76 1.763-2.572-.01-4.668.927-7.392 1.589 2.082-2.423 3.067-2.96 5.632-3.352z" data-color="1" class="shape"></path><path d="M158.382 270.108h.987c.603.444.661 1.01.391 1.607-.344.605-.889.322-1.347.396-.763-.662-.744-1.328-.031-2.003z" data-color="1" class="shape"></path><path d="M415.056 203.904v-2.196c.242-.17.487-.49.747-.503 1.747-.085 3.423-.51 5.109-.829 2.621-.496 5.181-1.488 8.037-1.333 2.392.13 4.853-.968 7.28-1.535.297-.069.599-.348.859-.302 3.949.691 7.608-1.324 11.567-1.121 3.267.167 6.557-.703 9.72-1.711 2.118-.675 4.606.718 6.492-1.184 4.012.166 7.872-2.065 12.002-.738.316.784.487 1.391-.697 1.767-2.481.786-5.022 1.385-7.565.905-2.105-.398-3.644 1.044-5.582 1.117-1.869.071-3.732-.475-5.667.805-1.156.764-3.247.272-4.891.098-1.284-.136-2.393 2.34-3.734.209-1.064.656-2.137 1.581-3.093-.111-.792.294-.441 1.083-.725 1.593-.986 1.486-2.139-1.61-3.116.113-1.27-1.158-2.392.18-3.552.325-1.155.144-2.177 1.127-3.334 1.517-2.075.7-4.316.796-6.446 1.19-1.569.29-2.809 1.525-4.544 1.249-1.459-.233-3.107.313-4.452-.138-1.735-.583-2.497 1.654-4.415.813z" data-color="1" class="shape"></path><path d="M401.938 204.278v2.678c-1.703-1.323-3.041.928-4.652.24-1.471-.628-2.799.596-4.339.491-1.56-.106-3.4.142-4.701.925-1.637.983-3.227.154-4.839.688-1.612 1.744-3.785 1.988-6.108 1.883-4.034-.183-7.86.643-11.398 2.617-1.342.749-2.44.523-3.188-.335-2.376.273-4.155 2.424-6.877 1.364.478-2.098 2.229-2.532 3.55-2.548 1.835-.022 3.568-.33 5.047-1.167 2.278-1.289 4.881-.648 7.278-1.77 2.004-.939 4.618-.994 6.978-1.326 4.388-.618 8.686-1.908 13.182-1.826.564.01.847-.389 1.266-.579 2.663-1.208 5.464-1.732 8.801-1.335z" data-color="1" class="shape"></path><path d="M306.982 225.157c.332 0 .843.139.968-.021 1.723-2.212 4.545-2.256 6.794-2.766 2.243-.509 4.506-1.779 7.006-1.224 1.953.434 3.033-1.461 4.725-1.825 3.934.515 7.434-2.129 12.002-2.18-1.475 1.047-2.68 1.406-2.742 3.066-2.723-.393-5.343.277-7.697 1.508-1.903.995-4.308-.523-5.877 1.445-3.865-.73-6.977 1.47-10.335 2.679-1.609.579-3.235.157-4.844.317v-.999z" data-color="1" class="shape"></path><path d="M73.843 370.001c-.157-.621.33-1.008.703-1.162 5.049-2.094 9.88-4.769 15.323-5.822.317-.061.656-.008.984-.008v.999c.114.621-.264.916-.777.989-3.082.436-6.117 1.187-8.59 3.077-1.21.925-2.334.86-3.595.936-1.094.066-1.755 1.5-3.047.991h-1.001z" data-color="1" class="shape"></path><path d="M403.258 205.004l-.244-1.155c2.956-2.634 6.495-1.35 9.935-1.738v1.777c-3.274.274-6.344 2.032-9.691 1.116z" data-color="1" class="shape"></path><path d="M128.876 349.023c-.498 0-1.285-.203-1.45.031-1.804 2.568-4.909 1.845-7.278 2.943-.434.201-.959-.022-1.274-.479 1.173-1.589 3.529-1.661 4.42-3.494h4.58c.694-.025 1.028.308 1.002.999z" data-color="1" class="shape"></path><path d="M489.213 258.276c-.265.827.272 1.672-.936 1.666l-.302-1.481c-1.378-.885-3.118.107-4.643-.577.039-1.35 1.08-.624 1.652-.734a5.623 5.623 0 0 1 1.979-.007c.986.17 1.172-1.123 2.13-1.029.552-.143.802.363 1.16.667 1.222-.228 2.445-.455 3.894-.723-1.018 2.96-3.539 1.588-4.934 2.218z" data-color="1" class="shape"></path><path d="M488.171 190.537c-3.067 2.157-6.841 1.678-9.956 3.677v-3.021c1.716 0 3.808.583 5.206-.152 1.635-.858 2.942-.952 4.75-.504z" data-color="1" class="shape"></path><path d="M306.982 225.157v.999c0 .166.012.478-.002.479-2.949.236-5.723 1.701-8.744 1.504-.22-1.058.681-1.139.967-1.835h4.18c.89-1.253 2.285-1.255 3.258-1.983.019-.014.269.2.328.342.059.142.013.327.013.494z" data-color="1" class="shape"></path><path d="M346.242 215.075c.979.614.68 1.151.798 1.7-1.496.808-3.166.12-4.468.425-1.124.7-1.473 2.091-2.854 1.977-1.383-.562-.439-1.707-.744-2.721 2.51-.835 5.383.638 7.268-1.381z" data-color="1" class="shape"></path><path d="M353.914 214.343v1.649h-5.813v-1.649h5.813z" data-color="1" class="shape"></path><path d="M62.13 373.864c.59.438.808.826.575 1.761-1.4.294-2.586 2.11-4.849.996 1.086-1.644 2.801-2.087 4.274-2.757z" data-color="1" class="shape"></path><path d="M108.239 355.731l-3.281 3.292c-1.003.111-1.253-.893-2.197-1.491l5.478-1.801z" data-color="1" class="shape"></path><path d="M115.868 354.018c-1.471 1.313-3.274.972-5.003.999.794-2.845 3.15-1.794 5.003-1.998v.999z" data-color="1" class="shape"></path><path d="M171.538 331.491c-2.332.618-3.568 2.392-5.771 1.042 1.757-.612 2.982-2.138 5.771-1.042z" data-color="1" class="shape"></path><path d="M459.04 259.604c.936-.824 1.779-.311 2.528-.493.917.777.429 1.739.344 3.274-1.174-1.056-1.976-1.932-2.872-2.781z" data-color="1" class="shape"></path><path d="M93.448 362.009c1.404-1.675 2.47-2.643 4.194-1.73-.032.869-.883 1.142-1.297 1.73h-2.897z" data-color="1" class="shape"></path><path d="M158.893 335.826c.721-.789 1.038-1.896 1.932-1.819 1.125.155 1.139.763 1.018 1.534-.745 1.079-1.962.224-2.95.285z" data-color="1" class="shape"></path><path d="M90.854 364.007v-.999c.469-1.925 2.017-.619 3.002-.999-.393 1.577-1.45 2.159-3.002 1.998z" data-color="1" class="shape"></path><path d="M436.977 224.199v1.575c-.958.573-1.84.535-2.843.017.581-.92 1.149-1.759 2.843-1.592z" data-color="1" class="shape"></path><path d="M73.843 370.001h1.001c-.413 1.256-1.073 2.173-2.568 1.94-.58-.537-.561-1.085-.058-1.94h1.625z" data-color="1" class="shape"></path><path d="M159.148 336.513c-1.542.788-2.854.62-4.525.154 1.634-.942 2.945-.829 4.525-.154z" data-color="1" class="shape"></path><path d="M509.9 256.397c-.831.924-1.717.877-2.875.28 1.006-.917 1.989-.289 2.875-.28z" data-color="1" class="shape"></path><path d="M440.015 222.659c1.046-.788 2.047-.788 3.094 0-1.047.788-2.047.788-3.094 0z" data-color="1" class="shape"></path><path d="M419.471 231.3c1.514-1.693 2.518-.873 3.946-1.268-1.235 1.664-2.402.889-3.946 1.268z" data-color="1" class="shape"></path><path d="M110.865 355.017c-.469 1.925-2.017.619-3.002.999.47-1.925 2.018-.619 3.002-.999z" data-color="1" class="shape"></path><path d="M444.226 226.699c-1.344-1.139-1.427-1.773-.759-2.464 1.053.387.418 1.278.759 2.464z" data-color="1" class="shape"></path><path d="M406.82 236.44c-.482.893-1.036.858-1.641.376.309-1.364 1.159-.124 1.641-.376z" data-color="1" class="shape"></path><path d="M431.835 226.451c-.482.893-1.036.858-1.641.376.308-1.364 1.159-.124 1.641-.376z" data-color="1" class="shape"></path><path d="M420.045 231.155c.086.479-.135.782-.592.885-.077.017-.312-.216-.294-.294.103-.457.406-.677.886-.591z" data-color="1" class="shape"></path><path d="M433.557 227.16c.466.328.466.661 0 .988-.466-.328-.466-.661 0-.988z" data-color="1" class="shape"></path></g></g>
</svg>
</g><g opacity="1" transform="rotate(0 145.9802 230.077)">
<svg width="185.3829" height="16" x="145.9802" y="230.077" version="1.1" preserveAspectRatio="none" viewBox="2.6 -28.32 331.79999999999995 28.64">
  <g transform="matrix(1 0 0 1 0 0)" class="text"><path id="id-6izo4zJp15" d="M5.60-28L5.60-16.76Q8.04-20.32 12.76-20.32L12.76-20.32Q17.08-20.32 19.76-17.32L19.76-17.32Q22.44-14.36 22.44-10L22.44-10Q22.44-5.64 19.76-2.68L19.76-2.68Q17.08 0.32 12.54 0.32Q8 0.32 5.60-3.20L5.60-3.20L5.60 0L2.60 0L2.60-28L5.60-28ZM12.36-2.40L12.36-2.40Q15.56-2.40 17.56-4.64L17.56-4.64Q19.44-6.76 19.44-10L19.44-10Q19.44-13.24 17.56-15.36L17.56-15.36Q15.56-17.60 12.36-17.60L12.36-17.60Q9.12-17.60 7.24-15.36L7.24-15.36Q5.44-13.24 5.44-10L5.44-10Q5.44-6.76 7.24-4.64L7.24-4.64Q9.12-2.40 12.36-2.40Z M39.28-2.40L39.28-2.40Q43.32-2.40 45.08-5.76L45.08-5.76L48.36-5.76Q47.32-3.04 45.06-1.36Q42.80 0.32 39.24 0.32L39.24 0.32Q34.72 0.32 31.88-2.68L31.88-2.68Q29.12-5.60 29.12-10L29.12-10Q29.12-14.44 31.76-17.32L31.76-17.32Q34.56-20.32 39.04-20.32L39.04-20.32Q43.52-20.32 46.32-17.32L46.32-17.32Q48.96-14.44 48.96-10L48.96-10L48.96-8.80L32.20-8.80Q32.52-6.04 34.40-4.24L34.40-4.24Q36.32-2.40 39.28-2.40ZM39.04-17.60L39.04-17.60Q36.28-17.60 34.40-15.88L34.40-15.88Q32.64-14.24 32.24-11.60L32.24-11.60L45.84-11.60Q45.44-14.24 43.68-15.88L43.68-15.88Q41.80-17.60 39.04-17.60Z M72.24 0L72.24-3.20Q69.84 0.32 65.08 0.32L65.08 0.32Q60.76 0.32 58.04-2.68L58.04-2.68Q55.40-5.64 55.40-10L55.40-10Q55.40-14.36 58.04-17.32L58.04-17.32Q60.76-20.32 65.28-20.32Q69.80-20.32 72.24-16.76L72.24-16.76L72.24-20L75.24-20L75.24 0L72.24 0ZM65.48-2.40L65.48-2.40Q68.72-2.40 70.60-4.64L70.60-4.64Q72.40-6.76 72.40-10L72.40-10Q72.40-13.24 70.60-15.36L70.60-15.36Q68.72-17.60 65.48-17.60L65.48-17.60Q62.28-17.60 60.28-15.36L60.28-15.36Q58.40-13.24 58.40-10L58.40-10Q58.40-6.76 60.28-4.64L60.28-4.64Q62.28-2.40 65.48-2.40Z M101.88 0L98.88 0L98.88-3.12Q97.80-1.68 96.24-0.68Q94.68 0.32 92.68 0.32Q90.68 0.32 89.24-0.24Q87.80-0.80 86.72-1.92L86.72-1.92Q84.24-4.36 84.24-8.36L84.24-8.36L84.24-20L87.24-20L87.24-8.44Q87.24-5.68 88.80-4.04Q90.36-2.40 92.84-2.40L92.84-2.40Q95.36-2.40 97.12-4.08L97.12-4.08Q98.88-5.80 98.88-8.48L98.88-8.48L98.88-20L101.88-20L101.88 0Z M116.24 0L113.24 0L113.24-17.36L109.16-17.36L109.16-20L113.24-20L113.24-27.16L116.24-27.16L116.24-20L120.84-20L120.84-17.36L116.24-17.36L116.24 0Z M128.12 0L128.12-20L131.12-20L131.12 0L128.12 0ZM128-27.28L131.24-27.28L131.24-23.36L128-23.36L128-27.28Z M149.32-25.48L148.92-25.48Q146.80-25.48 145.74-24.54Q144.68-23.60 144.68-21.52L144.68-21.52L144.68-20L149.32-20L149.32-17.36L144.68-17.36L144.68 0L141.68 0L141.68-17.36L138.24-17.36L138.24-20L141.68-20L141.68-21.76Q141.68-25.04 143.64-26.68Q145.60-28.32 149.08-28.32L149.08-28.32L149.32-28.32L149.32-25.48Z M174.04 0L171.04 0L171.04-3.12Q169.96-1.68 168.40-0.68Q166.84 0.32 164.84 0.32Q162.84 0.32 161.40-0.24Q159.96-0.80 158.88-1.92L158.88-1.92Q156.40-4.36 156.40-8.36L156.40-8.36L156.40-20L159.40-20L159.40-8.44Q159.40-5.68 160.96-4.04Q162.52-2.40 165-2.40L165-2.40Q167.52-2.40 169.28-4.08L169.28-4.08Q171.04-5.80 171.04-8.48L171.04-8.48L171.04-20L174.04-20L174.04 0Z M186.24-28L186.24 0L183.24 0L183.24-28L186.24-28Z M210.96-20L210.96-16.96Q212.96-20.32 217.04-20.32L217.04-20.32Q219.04-20.32 220.74-19.26Q222.44-18.20 223.40-16.28L223.40-16.28Q224.76-18.80 227.64-19.88L227.64-19.88Q228.80-20.32 230.26-20.32Q231.72-20.32 233.06-19.74Q234.40-19.16 235.44-18.08L235.44-18.08Q237.68-15.68 237.68-12.08L237.68-12.08L237.68 0L234.68 0L234.68-12Q234.68-14.48 233.28-16.08L233.28-16.08Q231.88-17.60 229.72-17.60L229.72-17.60Q227.44-17.60 225.92-16.12L225.92-16.12Q224.32-14.60 224.32-11.96L224.32-11.96L224.32 0L221.32 0L221.32-12Q221.32-14.48 219.92-16.08L219.92-16.08Q218.52-17.60 216.36-17.60L216.36-17.60Q214.08-17.60 212.56-16.12L212.56-16.12Q210.96-14.60 210.96-11.96L210.96-11.96L210.96 0L207.96 0L207.96-20L210.96-20Z M262.28 0L262.28-3.20Q259.88 0.32 255.12 0.32L255.12 0.32Q250.80 0.32 248.08-2.68L248.08-2.68Q245.44-5.64 245.44-10L245.44-10Q245.44-14.36 248.08-17.32L248.08-17.32Q250.80-20.32 255.32-20.32Q259.84-20.32 262.28-16.76L262.28-16.76L262.28-20L265.28-20L265.28 0L262.28 0ZM255.52-2.40L255.52-2.40Q258.76-2.40 260.64-4.64L260.64-4.64Q262.44-6.76 262.44-10L262.44-10Q262.44-13.24 260.64-15.36L260.64-15.36Q258.76-17.60 255.52-17.60L255.52-17.60Q252.32-17.60 250.32-15.36L250.32-15.36Q248.44-13.24 248.44-10L248.44-10Q248.44-6.76 250.32-4.64L250.32-4.64Q252.32-2.40 255.52-2.40Z M291.32-20L283.28-12.12L291.92 0L288.24 0L281.24-10.04L277.48-6.32L277.48 0L274.48 0L274.48-28L277.48-28L277.48-10.08L287.12-20L291.32-20Z M306.48-2.40L306.48-2.40Q310.52-2.40 312.28-5.76L312.28-5.76L315.56-5.76Q314.52-3.04 312.26-1.36Q310 0.32 306.44 0.32L306.44 0.32Q301.92 0.32 299.08-2.68L299.08-2.68Q296.32-5.60 296.32-10L296.32-10Q296.32-14.44 298.96-17.32L298.96-17.32Q301.76-20.32 306.24-20.32L306.24-20.32Q310.72-20.32 313.52-17.32L313.52-17.32Q316.16-14.44 316.16-10L316.16-10L316.16-8.80L299.40-8.80Q299.72-6.04 301.60-4.24L301.60-4.24Q303.52-2.40 306.48-2.40ZM306.24-17.60L306.24-17.60Q303.48-17.60 301.60-15.88L301.60-15.88Q299.84-14.24 299.44-11.60L299.44-11.60L313.04-11.60Q312.64-14.24 310.88-15.88L310.88-15.88Q309-17.60 306.24-17.60Z M334.20-20.32L334.40-20.32L334.40-17.32L334.04-17.32Q330.80-17.32 328.76-14.72L328.76-14.72Q326.84-12.24 326.84-8.80L326.84-8.80L326.84 0L323.84 0L323.84-20L326.84-20L326.84-15.08Q327.80-18.20 331-19.68L331-19.68Q332.32-20.32 334.20-20.32L334.20-20.32Z"/></g>
</svg>
</g><g opacity="1" transform="rotate(0 43.7846 180.077)">
<svg width="389.7741" height="34" x="43.7846" y="180.077" version="1.1" preserveAspectRatio="none" viewBox="1.6 -22.88 266.88 23.28">
  <g transform="matrix(1 0 0 1 0 0)" class="companyName"><path id="id-D6z1nYkh12" d="M11.60 0L11.60 0L1.60 0L1.60-0.80L3.60-0.80L3.60-21.60L1.60-21.60L1.60-22.40L11.60-22.40Q14.56-22.40 16.94-21.42Q19.32-20.44 20.80-18.84L20.80-18.84Q23.80-15.52 23.80-11.32L23.80-11.32Q23.80-5.64 20.80-2.82Q17.80 0 11.60 0ZM9.60-21.60L9.60-0.80Q13.92-0.80 15.84-3.14Q17.76-5.48 17.76-10.78Q17.76-16.08 15.68-18.84Q13.60-21.60 9.60-21.60L9.60-21.60Z M33.80-21.60L33.80-21.60L33.80-11.28Q37.80-11.28 39.16-12.44Q40.52-13.60 40.52-16.32Q40.52-19.04 39.12-20.32Q37.72-21.60 33.80-21.60ZM49.52-0.40L49.52 0.40L47.76 0.40Q42.76 0.40 40.80-1.76L40.80-1.76Q39.24-3.44 38.68-6.20L38.68-6.20Q38.44-7.36 38.16-8.32L38.16-8.32Q37.52-10.48 35.56-10.48L35.56-10.48L33.80-10.48L33.80-0.80L35.80-0.80L35.80 0L25.80 0L25.80-0.80L27.80-0.80L27.80-21.60L25.80-21.60L25.80-22.40L36.32-22.40Q46.52-22.40 46.52-16.44L46.52-16.44Q46.52-14.08 44.80-12.60Q43.08-11.12 40.40-11.12L40.40-11.12L40.40-10.84Q44.40-10.84 45.96-5.56L45.96-5.56Q46.76-2.76 47.58-1.58Q48.40-0.40 49.52-0.40L49.52-0.40Z M61.52-0.80L61.52 0L51.52 0L51.52-0.80L53.52-0.80L53.52-21.60L51.52-21.60L51.52-22.40L61.52-22.40L61.52-21.60L59.52-21.60L59.52-0.80L61.52-0.80Z M72.72-0.80L76.72-0.80Q82.72-0.80 82.72-7.60L82.72-7.60L83.52-7.60L83.52 0L64.72 0L64.72-0.80L66.72-0.80L66.72-21.60L64.72-21.60L64.72-22.40L83.12-22.40L83.12-15.60L82.32-15.60Q82.32-19.16 80.90-20.38Q79.48-21.60 76.32-21.60L76.32-21.60L72.72-21.60L72.72-12L74.32-12Q77.20-12 77.96-12.72Q78.72-13.44 78.72-15.60L78.72-15.60L79.52-15.60L79.52-7.60L78.72-7.60Q78.72-9.84 77.96-10.52Q77.20-11.20 74.32-11.20L74.32-11.20L72.72-11.20L72.72-0.80Z M96.52 0L96.52 0L86.52 0L86.52-0.80L88.52-0.80L88.52-21.60L86.52-21.60L86.52-22.40L96.52-22.40Q99.48-22.40 101.86-21.42Q104.24-20.44 105.72-18.84L105.72-18.84Q108.72-15.52 108.72-11.32L108.72-11.32Q108.72-5.64 105.72-2.82Q102.72 0 96.52 0ZM94.52-21.60L94.52-0.80Q98.84-0.80 100.76-3.14Q102.68-5.48 102.68-10.78Q102.68-16.08 100.60-18.84Q98.52-21.60 94.52-21.60L94.52-21.60Z M119.72-22.40L138.12-22.40L138.12-15.60L137.32-15.60Q137.32-19.16 135.90-20.38Q134.48-21.60 131.32-21.60L131.32-21.60L127.72-21.60L127.72-11.12L129.32-11.12Q132.20-11.12 132.96-11.84Q133.72-12.56 133.72-14.72L133.72-14.72L134.52-14.72L134.52-6.72L133.72-6.72Q133.72-8.96 132.96-9.64Q132.20-10.32 129.32-10.32L129.32-10.32L127.72-10.32L127.72-0.80L130.12-0.80L130.12 0L119.72 0L119.72-0.80L121.72-0.80L121.72-21.60L119.72-21.60L119.72-22.40Z M158.92-7.60L158.92-7.60L159.72-7.60L159.72 0L140.92 0L140.92-0.80L142.92-0.80L142.92-21.60L140.92-21.60L140.92-22.40L151.32-22.40L151.32-21.60L148.92-21.60L148.92-0.80L152.92-0.80Q154.28-0.80 155.18-1Q156.08-1.20 157.04-1.84L157.04-1.84Q158.92-3.08 158.92-7.60Z M177.76-11.24Q177.76-16.36 176.38-19.22Q175-22.08 172.58-22.08Q170.16-22.08 168.76-19.20Q167.36-16.32 167.36-11.16Q167.36-6 168.70-3.20Q170.04-0.40 172.56-0.40L172.56-0.40Q177.76-0.40 177.76-11.24L177.76-11.24ZM184.20-11.02Q184.20-5.52 180.96-2.56Q177.72 0.40 172.52 0.40Q167.32 0.40 164.12-2.54Q160.92-5.48 160.92-10.98Q160.92-16.48 164.12-19.68Q167.32-22.88 172.62-22.88Q177.92-22.88 181.06-19.70Q184.20-16.52 184.20-11.02Z M187.32-21.60L185.40-21.60L185.40-22.40L197.12-22.40L197.12-21.60L195.16-21.60L200.64-9.24L203.20-15.60L200.52-21.60L199-21.60L199-22.40L209.96-22.40L209.96-21.60L208.08-21.60L213.44-9.40L217.68-21.60L214.48-21.60L214.48-22.40L221.36-22.40L221.36-21.60L218.64-21.60L211.16 0L210.20 0L210.36-0.44L210.16 0L203.72-14.48L197.92 0L196.96 0L187.32-21.60Z M231.36-0.80L235.36-0.80Q241.36-0.80 241.36-7.60L241.36-7.60L242.16-7.60L242.16 0L223.36 0L223.36-0.80L225.36-0.80L225.36-21.60L223.36-21.60L223.36-22.40L241.76-22.40L241.76-15.60L240.96-15.60Q240.96-19.16 239.54-20.38Q238.12-21.60 234.96-21.60L234.96-21.60L231.36-21.60L231.36-12L232.96-12Q235.84-12 236.60-12.72Q237.36-13.44 237.36-15.60L237.36-15.60L238.16-15.60L238.16-7.60L237.36-7.60Q237.36-9.84 236.60-10.52Q235.84-11.20 232.96-11.20L232.96-11.20L231.36-11.20L231.36-0.80Z M252.76-21.60L252.76-21.60L252.76-11.28Q256.76-11.28 258.12-12.44Q259.48-13.60 259.48-16.32Q259.48-19.04 258.08-20.32Q256.68-21.60 252.76-21.60ZM268.48-0.40L268.48 0.40L266.72 0.40Q261.72 0.40 259.76-1.76L259.76-1.76Q258.20-3.44 257.64-6.20L257.64-6.20Q257.40-7.36 257.12-8.32L257.12-8.32Q256.48-10.48 254.52-10.48L254.52-10.48L252.76-10.48L252.76-0.80L254.76-0.80L254.76 0L244.76 0L244.76-0.80L246.76-0.80L246.76-21.60L244.76-21.60L244.76-22.40L255.28-22.40Q265.48-22.40 265.48-16.44L265.48-16.44Q265.48-14.08 263.76-12.60Q262.04-11.12 259.36-11.12L259.36-11.12L259.36-10.84Q263.36-10.84 264.92-5.56L264.92-5.56Q265.72-2.76 266.54-1.58Q267.36-0.40 268.48-0.40L268.48-0.40Z"/></g>
</svg>
</g></svg></svg>