<svg version="1.1" preserveAspectRatio="none" xmlns="http://www.w3.org/2000/svg" width="500" height="500" viewBox="0 0 500 500"><rect width="100%" height="100%" fill="#F9F7F7" fill-opacity="1"/><svg viewBox="108.9321 146.6701 281.0138 204" width="333" height="241.7390177991259" x="83.5px" y="129.1305px" xmlns="http://www.w3.org/2000/svg" xmlns:xlink="http://www.w3.org/1999/xlink" preserveAspectRatio="none"><defs></defs><style>.aq6WP-wJgVstrokeColor-str {stroke:#0C0C0C;stroke-opacity:1;}.companyName {fill:#2C3E57;fill-opacity:1;}.icon1 {fill:#9C8B58;fill-opacity:1;}.icon3 {fill:#C8B889;fill-opacity:1;}.icon3-str {stroke:#C8B889;stroke-opacity:1;}.shape {fill:#9C8B58;fill-opacity:1;}.shapeStroke-str {stroke:#2C3E57;stroke-opacity:1;}.text {fill:#1A1245;fill-opacity:1;}</style><g opacity="1" transform="rotate(0 108.9321 301.6701)">
<svg width="100.5069" height="1.4" x="108.9321" y="301.6701" version="1.1" preserveAspectRatio="none" viewBox="0 0 100.5069 1.4">
  <defs><rect x="0" y="0" width="100.5069" height="1.4" rx="0px" ry="0px" id="id-5kldYRpCP1707332252953"></rect></defs><use class="icon1 shapeStroke-str" style="stroke-width:0;" xlink:href="#id-5kldYRpCP1707332252953"></use>
</svg>
</g><g opacity="1" transform="rotate(0 226.006 285.3701)">
<svg width="46.8661" height="32" x="226.006" y="285.3701" version="1.1" preserveAspectRatio="none" viewBox="19.99881172180176 45.37599182128906 160.0006866455078 109.24801635742188">
  <g transform="matrix(1 0 0 1 0 0)"><g><path d="M120.23 154.624c-6.238 0-12.903-.92-19.976-2.761a2.286 2.286 0 0 1-1.709-2.033c-1.549-19.328 2.791-34.715 12.903-45.73 12.783-13.927 35.069-21.078 66.247-21.254.665.166 1.334.296 1.768.818.439.522.622 1.212.499 1.883-5.591 30.676-16.503 51.385-32.436 61.552-7.852 5.011-16.988 7.525-27.296 7.525zm-17.236-6.797c16.793 4.065 30.936 2.514 42.066-4.589 14.356-9.157 24.399-27.914 29.879-55.776-28.387.558-48.602 7.193-60.116 19.735-8.931 9.733-12.907 23.398-11.829 40.63z" data-color="1" class="icon1"></path><path d="M79.769 154.624c-10.31 0-19.443-2.51-27.297-7.525-15.934-10.167-26.847-30.876-32.436-61.552a2.29 2.29 0 0 1 2.255-2.701h.013c31.178.177 53.468 7.329 66.249 21.254 10.107 11.015 14.449 26.402 12.898 45.73a2.286 2.286 0 0 1-1.709 2.033c-7.071 1.84-13.737 2.761-19.973 2.761zM25.063 87.462c5.48 27.861 15.523 46.619 29.875 55.776 11.136 7.108 25.279 8.65 42.063 4.589 1.084-17.232-2.891-30.897-11.822-40.63C73.667 94.655 53.45 88.02 25.063 87.462zm74.105 62.185h.043-.043z" data-color="1" class="icon1"></path><path d="M101.456 150.277c-.464 0-.929-.145-1.329-.426-15.8-11.237-24.795-24.45-26.736-39.275-2.452-18.742 6.398-40.412 26.302-64.411.869-1.052 2.659-1.052 3.528 0 19.904 23.999 28.754 45.668 26.3 64.411-1.939 14.824-10.934 28.038-26.734 39.275a2.325 2.325 0 0 1-1.331.426zm0-99.032c-17.82 22.107-25.731 41.857-23.523 58.739 1.715 13.099 9.626 24.923 23.523 35.171 13.895-10.248 21.808-22.073 23.521-35.171 2.212-16.882-5.701-36.632-23.521-58.739z" data-color="1" class="icon1"></path></g></g>
</svg>
</g><g opacity="1" transform="rotate(0 108.9321 146.6701)">
<svg width="281.0138" height="120" x="108.9321" y="146.6701" version="1.1" preserveAspectRatio="none" viewBox="2.4 -28.72 166.92 71.28">
  <g transform="matrix(1 0 0 1 0 0)" class="companyName"><path id="id-D6z1nYkh11" d="M37.08-28Q43.48-28 47.46-24.14Q51.44-20.28 51.44-14Q51.44-7.72 47.46-3.86Q43.48 0 37.08 0L37.08 0L23.52 0L23.52-0.40L24.04-0.40Q25.08-0.40 25.82-1.14Q26.56-1.88 26.60-2.92L26.60-2.92L26.60-25.32Q26.60-26.28 25.82-26.94Q25.04-27.60 24.04-27.60L24.04-27.60L23.56-27.60L23.52-28L37.08-28ZM37.08-26.80L29.20-26.80L29.20-1.20L37.08-1.20Q40.44-1.20 43.02-2.80Q45.60-4.40 47.02-7.30Q48.44-10.20 48.44-14L48.44-14Q48.44-19.76 45.30-23.28Q42.16-26.80 37.08-26.80L37.08-26.80Z M64.04-26.76L64.04-26.76L61.48-26.76L61.48-2.92Q61.48-1.88 62.22-1.14Q62.96-0.40 64.04-0.40L64.04-0.40L64.52-0.40L64.56 0L55.80 0L55.80-0.40L56.32-0.40Q57.36-0.40 58.10-1.12Q58.84-1.84 58.88-2.88L58.88-2.88L58.88-25.08Q58.84-26.12 58.10-26.86Q57.36-27.60 56.32-27.60L56.32-27.60L55.80-27.60L55.80-28L66.60-28Q70.24-28 72.32-25.98Q74.40-23.96 74.40-20.74Q74.40-17.52 72.42-15.18Q70.44-12.84 67.60-12.84L67.60-12.84Q68.20-12.56 69.02-11.74Q69.84-10.92 70.48-10.04L70.48-10.04Q73.92-5.12 74.96-3.98Q76.00-2.84 76.44-2.42Q76.88-2 77.40-1.60Q77.92-1.20 78.44-0.96L78.44-0.96Q79.60-0.40 80.92-0.40L80.92-0.40L80.92 0L78.72 0Q77.00 0 75.52-0.62Q74.04-1.24 73.30-1.90Q72.56-2.56 72.02-3.18Q71.48-3.80 69.04-7.32Q66.60-10.84 66.20-11.34Q65.80-11.84 65.36-12.32L65.36-12.32Q64.08-13.68 62.80-13.68L62.80-13.68L62.80-14.08Q63.12-14.04 63.64-14.04Q64.16-14.04 64.92-14.08L64.92-14.08Q69.88-14.20 71.16-18.24L71.16-18.24Q71.40-19.04 71.40-19.74Q71.40-20.44 71.40-20.64L71.40-20.64Q71.32-23.32 70.00-24.96Q68.68-26.60 66.44-26.72L66.44-26.72Q65.48-26.76 64.04-26.76Z M82.48-0.40L83-0.40Q84.04-0.40 84.78-1.14Q85.52-1.88 85.56-2.92L85.56-2.92L85.56-25.12Q85.52-26.16 84.78-26.88Q84.04-27.60 83-27.60L83-27.60L82.48-27.60L82.48-28L91.24-28L91.24-27.60L90.72-27.60Q89.68-27.60 88.94-26.88Q88.20-26.16 88.16-25.12L88.16-25.12L88.16-2.92Q88.16-1.88 88.92-1.14Q89.68-0.40 90.72-0.40L90.72-0.40L91.24-0.40L91.24 0L82.48 0L82.48-0.40Z M96.80-0.40L97.32-0.40Q98.36-0.40 99.10-1.14Q99.84-1.88 99.88-2.92L99.88-2.92L99.88-25.32Q99.76-26.28 99.04-26.94Q98.32-27.60 97.32-27.60L97.32-27.60L96.84-27.60L96.80-28L108.52-28Q109.76-28 111.22-28.24Q112.68-28.48 113.28-28.72L113.28-28.72L113.28-23.68L112.88-23.68L112.88-24.40Q112.88-25.36 112.22-26.04Q111.56-26.72 110.64-26.76L110.64-26.76L102.48-26.76L102.48-14.40L109.24-14.40Q110.04-14.44 110.60-15Q111.16-15.56 111.16-16.40L111.16-16.40L111.16-16.96L111.56-16.96L111.56-10.64L111.16-10.64L111.16-11.24Q111.16-12.04 110.62-12.60Q110.08-13.16 109.28-13.20L109.28-13.20L102.48-13.20L102.48-1.24L108.20-1.24Q111.16-1.24 112.72-2.56Q114.28-3.88 115.32-6.48L115.32-6.48L115.72-6.48L113.40 0L96.80 0L96.80-0.40Z M133.84-28Q140.24-28 144.22-24.14Q148.20-20.28 148.20-14Q148.20-7.72 144.22-3.86Q140.24 0 133.84 0L133.84 0L120.28 0L120.28-0.40L120.80-0.40Q121.84-0.40 122.58-1.14Q123.32-1.88 123.36-2.92L123.36-2.92L123.36-25.32Q123.36-26.28 122.58-26.94Q121.80-27.60 120.80-27.60L120.80-27.60L120.32-27.60L120.28-28L133.84-28ZM133.84-26.80L125.96-26.80L125.96-1.20L133.84-1.20Q137.20-1.20 139.78-2.80Q142.36-4.40 143.78-7.30Q145.20-10.20 145.20-14L145.20-14Q145.20-19.76 142.06-23.28Q138.92-26.80 133.84-26.80L133.84-26.80Z M18.88 13.28L18.88 14.44L18.88 17.80L18.48 17.80L18.48 17.20Q18.48 16.40 17.92 15.82Q17.36 15.24 16.52 15.24L16.52 15.24L8.08 15.24L8.08 27.60L14.84 27.60Q15.64 27.56 16.20 27Q16.76 26.44 16.76 25.64L16.76 25.64L16.76 25.04L17.16 25.04L17.16 31.36L16.76 31.36L16.76 30.76Q16.76 29.96 16.22 29.40Q15.68 28.84 14.88 28.80L14.88 28.80L8.08 28.80L8.08 39.08Q8.08 40.12 8.84 40.86Q9.60 41.60 10.64 41.60L10.64 41.60L11.16 41.60L11.16 42L2.40 42L2.40 41.60L2.92 41.60Q3.96 41.60 4.70 40.86Q5.44 40.12 5.48 39.08L5.48 39.08L5.48 16.68Q5.48 15.72 4.70 15.06Q3.92 14.40 2.92 14.40L2.92 14.40L2.44 14.40L2.40 14L14.12 14Q15.36 14 16.82 13.76Q18.28 13.52 18.88 13.28L18.88 13.28Z M24.84 41.60L25.36 41.60Q26.40 41.60 27.14 40.86Q27.88 40.12 27.92 39.08L27.92 39.08L27.92 16.92Q27.88 15.88 27.14 15.14Q26.40 14.40 25.36 14.40L25.36 14.40L24.84 14.40L24.84 14L33.60 14L33.60 14.40L33.08 14.40Q31.64 14.40 30.88 15.64L30.88 15.64Q30.52 16.24 30.52 16.92L30.52 16.92L30.52 40.76L36.24 40.76Q39.20 40.76 40.76 39.44Q42.32 38.12 43.36 35.52L43.36 35.52L43.76 35.52L41.44 42L24.84 42L24.84 41.60Z M51.70 17.46Q55.68 13.44 62.08 13.44Q68.48 13.44 72.48 17.46Q76.48 21.48 76.48 28Q76.48 34.52 72.48 38.54Q68.48 42.56 62.08 42.56Q55.68 42.56 51.70 38.54Q47.72 34.52 47.72 28Q47.72 21.48 51.70 17.46ZM53.90 37.68Q57 41.36 62.10 41.36Q67.20 41.36 70.30 37.68Q73.40 34 73.40 28L73.40 28Q73.40 24.04 72 21Q70.60 17.96 68.02 16.30Q65.44 14.64 62.08 14.64L62.08 14.64Q57 14.64 53.90 18.32Q50.80 22 50.80 28Q50.80 34 53.90 37.68Z M117.92 14L117.92 14.40L117.60 14.40Q116.12 14.40 115 15.48L115 15.48Q114.36 16.04 114.08 16.88L114.08 16.88L107.44 38.04Q106.64 40.56 106.56 42.48L106.56 42.48L106.20 42.48L98.04 19.60L91.96 38.04Q91.20 40.52 91.12 42.48L91.12 42.48L90.76 42.48L81.68 16.84Q81.20 15.64 80.20 15.02Q79.20 14.40 78.16 14.40L78.16 14.40L77.84 14.40L77.84 14L86.72 14L86.72 14.40L86.36 14.40Q85.52 14.40 85.10 14.94Q84.68 15.48 84.68 15.96Q84.68 16.44 84.80 16.84L84.80 16.84L90.88 36.32L98.32 13.36L98.68 13.40L106.56 35.52L111.92 16.80Q112.04 16.36 112.04 15.90Q112.04 15.44 111.64 14.92Q111.24 14.40 110.40 14.40L110.40 14.40L110.04 14.40L110.04 14L117.92 14Z M120.72 41.60L121.24 41.60Q122.28 41.60 123.02 40.86Q123.76 40.12 123.80 39.08L123.80 39.08L123.80 16.68Q123.68 15.72 122.96 15.06Q122.24 14.40 121.24 14.40L121.24 14.40L120.76 14.40L120.72 14L132.44 14Q133.68 14 135.14 13.76Q136.60 13.52 137.20 13.28L137.20 13.28L137.20 18.32L136.80 18.32L136.80 17.60Q136.80 16.64 136.14 15.96Q135.48 15.28 134.56 15.24L134.56 15.24L126.40 15.24L126.40 27.60L133.16 27.60Q133.96 27.56 134.52 27Q135.08 26.44 135.08 25.60L135.08 25.60L135.08 25.04L135.48 25.04L135.48 31.36L135.08 31.36L135.08 30.76Q135.08 29.96 134.54 29.40Q134 28.84 133.20 28.80L133.20 28.80L126.40 28.80L126.40 40.76L132.12 40.76Q135.08 40.76 136.64 39.44Q138.20 38.12 139.24 35.52L139.24 35.52L139.64 35.52L137.32 42L120.72 42L120.72 41.60Z M152.44 15.24L152.44 15.24L149.88 15.24L149.88 39.08Q149.88 40.12 150.62 40.86Q151.36 41.60 152.44 41.60L152.44 41.60L152.92 41.60L152.96 42L144.20 42L144.20 41.60L144.72 41.60Q145.76 41.60 146.50 40.88Q147.24 40.16 147.28 39.12L147.28 39.12L147.28 16.92Q147.24 15.88 146.50 15.14Q145.76 14.40 144.72 14.40L144.72 14.40L144.20 14.40L144.20 14L155 14Q158.64 14 160.72 16.02Q162.80 18.04 162.80 21.26Q162.80 24.48 160.82 26.82Q158.84 29.16 156 29.16L156 29.16Q156.60 29.44 157.42 30.26Q158.24 31.08 158.88 31.96L158.88 31.96Q162.32 36.88 163.36 38.02Q164.40 39.16 164.84 39.58Q165.28 40 165.80 40.40Q166.32 40.80 166.84 41.04L166.84 41.04Q168 41.60 169.32 41.60L169.32 41.60L169.32 42L167.12 42Q165.40 42 163.92 41.38Q162.44 40.76 161.70 40.10Q160.96 39.44 160.42 38.82Q159.88 38.20 157.44 34.68Q155 31.16 154.60 30.66Q154.20 30.16 153.76 29.68L153.76 29.68Q152.48 28.32 151.20 28.32L151.20 28.32L151.20 27.92Q151.52 27.96 152.04 27.96Q152.56 27.96 153.32 27.92L153.32 27.92Q158.28 27.80 159.56 23.76L159.56 23.76Q159.80 22.96 159.80 22.26Q159.80 21.56 159.80 21.36L159.80 21.36Q159.72 18.68 158.40 17.04Q157.08 15.40 154.84 15.28L154.84 15.28Q153.88 15.24 152.44 15.24Z"/></g>
</svg>
</g><g opacity="1" transform="rotate(0 142.4782 336.6701)">
<svg width="213.9217" height="14" x="142.4782" y="336.6701" version="1.1" preserveAspectRatio="none" viewBox="4.56 -28 431.44 28.24">
  <g transform="matrix(1 0 0 1 0 0)" class="text"><path id="id-D-YM9nyY415" d="M22.20-14.44Q24.96-13.84 26.46-12.06Q27.96-10.28 27.96-7.48L27.96-7.48Q27.96-3.88 25.30-1.94Q22.64 0 17.44 0L17.44 0L4.56 0L4.56-28L16.64-28Q21.32-28 23.90-26.12Q26.48-24.24 26.48-20.80L26.48-20.80Q26.48-18.48 25.34-16.86Q24.20-15.24 22.20-14.44L22.20-14.44ZM16.44-25.56L7.52-25.56L7.52-15.40L16.44-15.40Q19.84-15.40 21.68-16.70Q23.52-18 23.52-20.48L23.52-20.48Q23.52-22.96 21.68-24.26Q19.84-25.56 16.44-25.56L16.44-25.56ZM17.40-2.44Q21.16-2.44 23.08-3.72Q25-5 25-7.72L25-7.72Q25-12.96 17.40-12.96L17.40-12.96L7.52-12.96L7.52-2.44L17.40-2.44Z M40.88-2.56L57.72-2.56L57.72 0L37.92 0L37.92-28L57.12-28L57.12-25.44L40.88-25.44L40.88-15.48L55.36-15.48L55.36-12.96L40.88-12.96L40.88-2.56Z M88.80 0L85.44-7.48L69.84-7.48L66.48 0L63.40 0L76.20-28L79.12-28L91.92 0L88.80 0ZM70.92-9.88L84.36-9.88L77.64-24.92L70.92-9.88Z M110.44 0.24Q105.00 0.24 101.96-2.88Q98.92-6 98.92-11.96L98.92-11.96L98.92-28L101.88-28L101.88-12.08Q101.88-7.20 104.08-4.80Q106.28-2.40 110.44-2.40L110.44-2.40Q114.64-2.40 116.84-4.80Q119.04-7.20 119.04-12.08L119.04-12.08L119.04-28L121.92-28L121.92-11.96Q121.92-6 118.90-2.88Q115.88 0.24 110.44 0.24L110.44 0.24Z M138.92 0L138.92-25.44L129.08-25.44L129.08-28L151.72-28L151.72-25.44L141.88-25.44L141.88 0L138.92 0Z M159.64 0L159.64-28L162.60-28L162.60 0L159.64 0Z M194.12-25.44L177.88-25.44L177.88-14.44L192.36-14.44L192.36-11.88L177.88-11.88L177.88 0L174.92 0L174.92-28L194.12-28L194.12-25.44Z M214.72 0.24Q209.28 0.24 206.24-2.88Q203.20-6 203.20-11.96L203.20-11.96L203.20-28L206.16-28L206.16-12.08Q206.16-7.20 208.36-4.80Q210.56-2.40 214.72-2.40L214.72-2.40Q218.92-2.40 221.12-4.80Q223.32-7.20 223.32-12.08L223.32-12.08L223.32-28L226.20-28L226.20-11.96Q226.20-6 223.18-2.88Q220.16 0.24 214.72 0.24L214.72 0.24Z M238.32 0L238.32-28L241.28-28L241.28-2.56L256.96-2.56L256.96 0L238.32 0Z M305.40-28L307.84-28L307.84 0L305.00 0L305.00-22.40L294.00-3.56L292.60-3.56L281.60-22.28L281.60 0L278.76 0L278.76-28L281.20-28L293.36-7.24L305.40-28Z M341.08 0L337.72-7.48L322.12-7.48L318.76 0L315.68 0L328.48-28L331.40-28L344.20 0L341.08 0ZM323.20-9.88L336.64-9.88L329.92-24.92L323.20-9.88Z M372.16 0L360.72-13.16L355.00-7.36L355.00 0L352.04 0L352.04-28L355.00-28L355.00-11.08L371.44-28L374.84-28L362.72-15.32L375.68 0L372.16 0Z M386.64-2.56L403.48-2.56L403.48 0L383.68 0L383.68-28L402.88-28L402.88-25.44L386.64-25.44L386.64-15.48L401.12-15.48L401.12-12.96L386.64-12.96L386.64-2.56Z M436.00 0L432.76 0L426.36-9Q425.28-8.88 424.12-8.88L424.12-8.88L416.60-8.88L416.60 0L413.64 0L413.64-28L424.12-28Q429.48-28 432.52-25.44Q435.56-22.88 435.56-18.40L435.56-18.40Q435.56-15.12 433.90-12.86Q432.24-10.60 429.16-9.60L429.16-9.60L436.00 0ZM424.04-11.40Q428.20-11.40 430.40-13.24Q432.60-15.08 432.60-18.40L432.60-18.40Q432.60-21.80 430.40-23.62Q428.20-25.44 424.04-25.44L424.04-25.44L416.60-25.44L416.60-11.40L424.04-11.40Z"/></g>
</svg>
</g><g opacity="1" transform="rotate(0 289.439 301.6701)">
<svg width="100.5069" height="1.4" x="289.439" y="301.6701" version="1.1" preserveAspectRatio="none" viewBox="0 0 100.5069 1.4">
  <defs><rect x="0" y="0" width="100.5069" height="1.4" rx="0px" ry="0px" id="id-q6WP-wJgV1707332252953"></rect></defs><use class="icon1 aq6WP-wJgVstrokeColor-str" style="stroke-width:0;" xlink:href="#id-q6WP-wJgV1707332252953"></use>
</svg>
</g></svg></svg>